<?xml version="1.0" encoding="UTF-8"?>
<!DOCTYPE svg PUBLIC "-//W3C//DTD SVG 1.1//EN" "http://www.w3.org/Graphics/SVG/1.1/DTD/svg11.dtd">
<svg xmlns="http://www.w3.org/2000/svg" version="1.1" width="1911px" height="2138px" style="shape-rendering:geometricPrecision; text-rendering:geometricPrecision; image-rendering:optimizeQuality; fill-rule:evenodd; clip-rule:evenodd" xmlns:xlink="http://www.w3.org/1999/xlink">
<g><path style="opacity:0.994" fill="#000000" d="M 817.5,-0.5 C 848.833,-0.5 880.167,-0.5 911.5,-0.5C 947.016,2.69585 982.349,7.52918 1017.5,14C 1017.17,14.3333 1016.83,14.6667 1016.5,15C 1035.99,19.0394 1055.32,23.7061 1074.5,29C 1092.87,35.7171 1111.2,42.2171 1129.5,48.5C 1129.52,50.143 1128.85,51.4763 1127.5,52.5C 1111.23,59.8039 1094.9,66.8039 1078.5,73.5C 1069.72,78.744 1060.72,83.5773 1051.5,88C 1038.24,97.2317 1024.57,105.732 1010.5,113.5C 1003.37,119.968 995.707,125.635 987.5,130.5C 983.059,134.523 978.392,138.356 973.5,142C 973.833,142.333 974.167,142.667 974.5,143C 969.791,145.083 965.458,147.916 961.5,151.5C 959.557,154.743 956.891,157.243 953.5,159C 931.018,180.023 909.851,201.856 890,224.5C 884.219,233.05 877.719,241.05 870.5,248.5C 867.646,252.21 865.313,256.21 863.5,260.5C 857.637,268.243 851.637,275.909 845.5,283.5C 841.216,290.41 837.216,297.41 833.5,304.5C 831.374,306.613 829.374,308.78 827.5,311C 828.022,311.561 828.355,312.228 828.5,313C 826.018,316.164 823.685,319.33 821.5,322.5C 818.691,330.305 814.858,336.972 810,342.5C 802.482,357.536 794.982,372.536 787.5,387.5C 787.833,388.167 788.167,388.833 788.5,389.5C 785.758,393.246 783.425,397.246 781.5,401.5C 779.031,410.596 775.364,419.096 770.5,427C 771.022,427.561 771.355,428.228 771.5,429C 770.399,431.216 769.066,433.216 767.5,435C 767.957,435.414 768.291,435.914 768.5,436.5C 766.914,438.67 765.58,441.004 764.5,443.5C 760.744,453.85 757.411,464.35 754.5,475C 753.663,477.681 752.33,480.014 750.5,482C 751.081,482.893 751.415,483.893 751.5,485C 729.405,554.393 716.739,626.227 713.5,700.5C 711.022,757.754 713.688,814.754 721.5,871.5C 722.919,883.758 725.252,895.758 728.5,907.5C 728.43,908.772 728.097,909.938 727.5,911C 729.199,914.591 730.533,918.424 731.5,922.5C 731.43,923.772 731.097,924.938 730.5,926C 735.173,941.211 739.173,956.711 742.5,972.5C 744.261,978.238 746.261,983.905 748.5,989.5C 748.32,990.554 747.987,991.554 747.5,992.5C 749.086,994.67 750.42,997.004 751.5,999.5C 751.392,1000.44 751.059,1001.28 750.5,1002C 754.44,1012.32 758.107,1022.82 761.5,1033.5C 763.318,1038.73 765.651,1043.73 768.5,1048.5C 768.32,1049.55 767.987,1050.55 767.5,1051.5C 768.833,1053.5 770.167,1055.5 771.5,1057.5C 771.291,1058.09 770.957,1058.59 770.5,1059C 776.828,1071.04 782.328,1083.54 787,1096.5C 799.681,1121.85 813.014,1147.18 827,1172.5C 828.333,1173.83 829.667,1175.17 831,1176.5C 831.617,1177.45 831.451,1178.28 830.5,1179C 832.374,1181.22 834.374,1183.39 836.5,1185.5C 840.791,1193.29 845.291,1200.96 850,1208.5C 871.204,1237.1 893.871,1265.1 918,1292.5C 954.013,1329.14 993.846,1361.3 1037.5,1389C 1160.82,1462.79 1291.49,1481.12 1429.5,1444C 1445.73,1438.15 1462.06,1432.48 1478.5,1427C 1519.69,1408.98 1559.02,1386.48 1596.5,1359.5C 1616.54,1343.19 1636.2,1326.36 1655.5,1309C 1665.3,1298.28 1675.3,1287.78 1685.5,1277.5C 1695.79,1264.21 1706.46,1251.21 1717.5,1238.5C 1718.66,1241.78 1718.82,1245.12 1718,1248.5C 1715.98,1263.35 1713.81,1278.19 1711.5,1293C 1710.76,1297.64 1709.43,1301.97 1707.5,1306C 1708.12,1307.4 1708.45,1308.9 1708.5,1310.5C 1707.69,1314.95 1706.35,1319.12 1704.5,1323C 1705.59,1325.06 1705.76,1327.23 1705,1329.5C 1704.14,1332.59 1702.97,1335.59 1701.5,1338.5C 1702.52,1340.43 1702.69,1342.43 1702,1344.5C 1700.44,1347.64 1699.28,1350.98 1698.5,1354.5C 1695.37,1369.54 1692.04,1384.54 1688.5,1399.5C 1687.63,1402.96 1686.3,1406.13 1684.5,1409C 1685.06,1409.72 1685.39,1410.56 1685.5,1411.5C 1684.35,1414.62 1683.02,1417.62 1681.5,1420.5C 1681.93,1421.29 1682.26,1422.13 1682.5,1423C 1677.41,1437.84 1672.75,1452.84 1668.5,1468C 1667.66,1470.68 1666.33,1473.01 1664.5,1475C 1665.02,1475.56 1665.36,1476.23 1665.5,1477C 1660.36,1489.59 1655.69,1502.75 1651.5,1516.5C 1650.53,1518.95 1649.2,1521.12 1647.5,1523C 1647.96,1523.41 1648.29,1523.91 1648.5,1524.5C 1647.17,1526.5 1645.83,1528.5 1644.5,1530.5C 1644.83,1531.17 1645.17,1531.83 1645.5,1532.5C 1644.17,1534.5 1642.83,1536.5 1641.5,1538.5C 1641.71,1539.09 1642.04,1539.59 1642.5,1540C 1637.65,1550.77 1632.65,1561.44 1627.5,1572C 1628.02,1572.56 1628.36,1573.23 1628.5,1574C 1627.4,1576.22 1626.07,1578.22 1624.5,1580C 1625.65,1582.08 1624.98,1583.58 1622.5,1584.5C 1618.95,1595.82 1613.95,1606.32 1607.5,1616C 1608.02,1616.56 1608.36,1617.23 1608.5,1618C 1601.94,1631.01 1594.94,1643.67 1587.5,1656C 1588.48,1658.73 1587.48,1660.73 1584.5,1662C 1584.96,1662.41 1585.29,1662.91 1585.5,1663.5C 1579.92,1671.77 1574.92,1680.44 1570.5,1689.5C 1567.98,1693.29 1565.31,1696.95 1562.5,1700.5C 1557.77,1709.63 1552.77,1718.63 1547.5,1727.5C 1543.56,1732.4 1539.9,1737.4 1536.5,1742.5C 1535.85,1746.3 1533.85,1749.13 1530.5,1751C 1530.83,1751.33 1531.17,1751.67 1531.5,1752C 1528.75,1753.28 1527.58,1755.11 1528,1757.5C 1525.65,1759.68 1523.48,1762.02 1521.5,1764.5C 1519.03,1770.81 1515.19,1776.14 1510,1780.5C 1509.17,1782.5 1508.33,1784.5 1507.5,1786.5C 1499.65,1795.52 1491.98,1804.69 1484.5,1814C 1484.96,1814.41 1485.29,1814.91 1485.5,1815.5C 1480.61,1821.47 1475.61,1827.3 1470.5,1833C 1470.83,1833.33 1471.17,1833.67 1471.5,1834C 1464.33,1838.68 1458.66,1844.85 1454.5,1852.5C 1447.8,1859.7 1441.3,1867.03 1435,1874.5C 1432.95,1877.05 1430.45,1879.05 1427.5,1880.5C 1426.17,1882.5 1424.83,1884.5 1423.5,1886.5C 1414.09,1894.6 1405.43,1903.44 1397.5,1913C 1394.06,1915.4 1390.73,1917.9 1387.5,1920.5C 1386.17,1922.5 1384.83,1924.5 1383.5,1926.5C 1366.61,1940.84 1350.28,1954.84 1334.5,1968.5C 1333.27,1969.28 1331.94,1969.78 1330.5,1970C 1330.83,1970.33 1331.17,1970.67 1331.5,1971C 1315.34,1983.49 1298.68,1995.33 1281.5,2006.5C 1195.99,2065.74 1101.99,2105.57 999.5,2126C 970.941,2131.1 941.608,2134.93 911.5,2137.5C 880.167,2137.5 848.833,2137.5 817.5,2137.5C 738.758,2132.15 662.758,2114.48 589.5,2084.5C 575.476,2077.36 561.143,2071.03 546.5,2065.5C 533.535,2057.62 520.201,2050.62 506.5,2044.5C 487.895,2032.49 468.562,2020.49 448.5,2008.5C 428.213,1993.67 407.547,1978.34 386.5,1962.5C 383.695,1959.86 381.029,1957.03 378.5,1954C 377.5,1953.67 376.5,1953.33 375.5,1953C 360.574,1939.23 345.574,1925.73 330.5,1912.5C 314.145,1896.76 298.478,1880.42 283.5,1863.5C 276.126,1855.29 269.292,1846.62 263,1837.5C 260.39,1835.65 257.89,1833.65 255.5,1831.5C 252.215,1826.55 248.548,1821.88 244.5,1817.5C 244.709,1816.91 245.043,1816.41 245.5,1816C 238.979,1808.65 232.646,1801.15 226.5,1793.5C 222.82,1786.4 218.154,1780.07 212.5,1774.5C 208.686,1767.02 204.02,1760.19 198.5,1754C 198.833,1753.67 199.167,1753.33 199.5,1753C 195.724,1749.95 193.057,1746.12 191.5,1741.5C 182.035,1728.51 173.535,1714.85 166,1700.5C 164.172,1699.34 162.672,1697.84 161.5,1696C 161.645,1695.23 161.978,1694.56 162.5,1694C 161.019,1693.02 159.685,1691.85 158.5,1690.5C 155.613,1683.67 151.947,1677.34 147.5,1671.5C 147.748,1668.79 146.581,1666.46 144,1664.5C 139.035,1653.9 133.535,1643.57 127.5,1633.5C 127.833,1632.83 128.167,1632.17 128.5,1631.5C 127.167,1630.17 125.833,1628.83 124.5,1627.5C 124.709,1626.91 125.043,1626.41 125.5,1626C 124.341,1624.17 123.008,1622.51 121.5,1621C 121.833,1620.67 122.167,1620.33 122.5,1620C 117.575,1610.52 112.575,1601.02 107.5,1591.5C 107.833,1590.83 108.167,1590.17 108.5,1589.5C 106.231,1585.67 103.898,1581.84 101.5,1578C 101.645,1577.23 101.978,1576.56 102.5,1576C 97.2802,1565.33 92.2802,1554.5 87.5,1543.5C 87.7093,1542.91 88.0426,1542.41 88.5,1542C 86.9344,1540.22 85.6011,1538.22 84.5,1536C 84.6448,1535.23 84.9781,1534.56 85.5,1534C 82.5236,1529.88 80.1902,1525.38 78.5,1520.5C 74.3233,1507.16 69.6567,1494.33 64.5,1482C 64.5852,1480.89 64.9186,1479.89 65.5,1479C 64.1414,1477.8 63.1414,1476.3 62.5,1474.5C 49.3841,1433.32 37.7175,1390.99 27.5,1347.5C 27.5698,1346.23 27.9032,1345.06 28.5,1344C 26.7014,1341.13 25.3681,1337.96 24.5,1334.5C 24.5698,1333.23 24.9032,1332.06 25.5,1331C 22.3491,1321.48 20.0157,1311.65 18.5,1301.5C 13.6726,1267.99 9.00594,1234.66 4.5,1201.5C 4.52724,1198.91 4.86057,1196.41 5.5,1194C 3.48686,1184.76 2.15352,1175.26 1.5,1165.5C 1.04555,1151.66 0.378883,1138 -0.5,1124.5C -0.5,1087.17 -0.5,1049.83 -0.5,1012.5C 0.378883,999.003 1.04555,985.336 1.5,971.5C 2.15352,961.743 3.48686,952.243 5.5,943C 4.86057,940.589 4.52724,938.089 4.5,935.5C 9.00594,902.34 13.6726,869.006 18.5,835.5C 20.0157,825.35 22.3491,815.517 25.5,806C 24.9032,804.938 24.5698,803.772 24.5,802.5C 25.3681,799.041 26.7014,795.874 28.5,793C 27.9032,791.938 27.5698,790.772 27.5,789.5C 37.7175,746.009 49.3841,703.675 62.5,662.5C 63.1414,660.704 64.1414,659.204 65.5,658C 64.3052,654.294 65.3052,651.128 68.5,648.5C 68.1667,647.833 67.8333,647.167 67.5,646.5C 71.7225,636.718 75.3892,626.718 78.5,616.5C 80.1902,611.618 82.5236,607.118 85.5,603C 84.9781,602.439 84.6448,601.772 84.5,601C 85.6011,598.784 86.9344,596.784 88.5,595C 88.0426,594.586 87.7093,594.086 87.5,593.5C 92.2802,582.502 97.2802,571.668 102.5,561C 101.978,560.439 101.645,559.772 101.5,559C 103.898,555.158 106.231,551.325 108.5,547.5C 108.167,546.833 107.833,546.167 107.5,545.5C 112.575,535.98 117.575,526.48 122.5,517C 122.167,516.667 121.833,516.333 121.5,516C 123.008,514.493 124.341,512.827 125.5,511C 125.043,510.586 124.709,510.086 124.5,509.5C 125.833,508.167 127.167,506.833 128.5,505.5C 128.167,504.833 127.833,504.167 127.5,503.5C 133.52,493.461 139.02,483.128 144,472.5C 146.581,470.54 147.748,468.206 147.5,465.5C 151.947,459.659 155.613,453.326 158.5,446.5C 159.685,445.147 161.019,443.98 162.5,443C 161.978,442.439 161.645,441.772 161.5,441C 162.672,439.161 164.172,437.661 166,436.5C 173.535,422.153 182.035,408.486 191.5,395.5C 195.735,386.669 201.401,378.336 208.5,370.5C 210.975,364.192 214.808,358.858 220,354.5C 221.647,350.541 223.814,346.875 226.5,343.5C 232.646,335.853 238.979,328.353 245.5,321C 245.043,320.586 244.709,320.086 244.5,319.5C 248.548,315.12 252.215,310.454 255.5,305.5C 263.321,298.874 269.987,291.207 275.5,282.5C 279.85,278.15 284.183,273.817 288.5,269.5C 291.176,264.325 295.01,260.325 300,257.5C 302.167,254.5 304.333,251.5 306.5,248.5C 321.191,234.808 335.525,220.808 349.5,206.5C 358.359,199.206 367.026,191.706 375.5,184C 376.5,183.667 377.5,183.333 378.5,183C 391.266,170.902 404.933,159.902 419.5,150C 428.613,143.19 438.279,136.024 448.5,128.5C 468.562,116.511 487.895,104.511 506.5,92.5C 520.201,86.376 533.535,79.376 546.5,71.5C 556.863,67.819 566.863,63.319 576.5,58C 653.616,24.8036 733.949,5.30358 817.5,-0.5 Z M 578.5,1156.5 C 634.698,1153.91 687.198,1166.58 736,1194.5C 747.977,1202.37 759.811,1210.37 771.5,1218.5C 815.635,1256.22 849.969,1300.89 874.5,1352.5C 876.167,1357.17 877.833,1361.83 879.5,1366.5C 880.354,1367.52 881.354,1368.36 882.5,1369C 882.043,1369.41 881.709,1369.91 881.5,1370.5C 882.833,1372.5 884.167,1374.5 885.5,1376.5C 885.291,1377.09 884.957,1377.59 884.5,1378C 901.527,1420.72 911.694,1465.55 915,1512.5C 919.751,1580.44 910.918,1645.77 888.5,1708.5C 887.42,1711 886.086,1713.33 884.5,1715.5C 884.833,1716.17 885.167,1716.83 885.5,1717.5C 883.984,1719.39 882.65,1721.39 881.5,1723.5C 881.709,1724.09 882.043,1724.59 882.5,1725C 878.718,1732.73 875.052,1740.57 871.5,1748.5C 868.412,1754.62 865.079,1760.12 861.5,1765C 861.645,1765.77 861.978,1766.44 862.5,1767C 861.354,1767.64 860.354,1768.48 859.5,1769.5C 832.899,1820.1 795.399,1861.43 747,1893.5C 736.254,1899.28 725.754,1905.44 715.5,1912C 704.285,1916.59 693.619,1920.76 683.5,1924.5C 674.013,1927.05 664.679,1929.89 655.5,1933C 638.007,1935.5 619.674,1937.34 600.5,1938.5C 579.346,1937.17 558.346,1934.67 537.5,1931C 517.079,1924.46 497.079,1916.79 477.5,1908C 466.411,1900.44 455.077,1893.27 443.5,1886.5C 427.819,1874.47 412.819,1861.81 398.5,1848.5C 390.676,1840.84 383.342,1832.67 376.5,1824C 376.833,1823.67 377.167,1823.33 377.5,1823C 371.508,1817.86 366.842,1811.69 363.5,1804.5C 359.75,1798.54 355.417,1793.04 350.5,1788C 351.022,1787.44 351.355,1786.77 351.5,1786C 345.197,1778.5 340.531,1770.5 337.5,1762C 334.585,1758.91 332.252,1755.41 330.5,1751.5C 330.833,1750.83 331.167,1750.17 331.5,1749.5C 328.423,1745.86 325.923,1741.86 324,1737.5C 320.452,1726.5 315.952,1716 310.5,1706C 311.554,1704.61 311.72,1703.11 311,1701.5C 309.768,1699.57 308.602,1697.57 307.5,1695.5C 278.23,1601.2 277.064,1506.54 304,1411.5C 319.745,1361.01 343.745,1314.68 376,1272.5C 381.373,1267.43 386.039,1261.76 390,1255.5C 392.351,1253.49 394.851,1251.66 397.5,1250C 397.167,1249.67 396.833,1249.33 396.5,1249C 425.848,1218.7 460.515,1194.53 500.5,1176.5C 526.11,1167.27 552.11,1160.6 578.5,1156.5 Z"/></g>
<g><path style="opacity:0.995" fill="#000000" d="M 1910.5,555.5 C 1910.5,580.5 1910.5,605.5 1910.5,630.5C 1906.46,693.301 1892.13,753.301 1867.5,810.5C 1866.65,811.522 1865.65,812.355 1864.5,813C 1865.02,813.561 1865.36,814.228 1865.5,815C 1864.4,817.216 1863.07,819.216 1861.5,821C 1862.65,823.085 1861.98,824.585 1859.5,825.5C 1855.94,835.534 1850.94,844.701 1844.5,853C 1845.02,853.561 1845.36,854.228 1845.5,855C 1838.96,863.252 1833.29,872.085 1828.5,881.5C 1826.17,884.167 1823.83,886.833 1821.5,889.5C 1792.03,934.124 1754.2,970.79 1708,999.5C 1697.23,1005.61 1686.4,1011.61 1675.5,1017.5C 1654.54,1026.35 1633.04,1033.68 1611,1039.5C 1594.59,1042.21 1578.09,1044.21 1561.5,1045.5C 1521.21,1047.22 1481.88,1041.55 1443.5,1028.5C 1433.36,1023.76 1423.03,1019.6 1412.5,1016C 1412.83,1015.67 1413.17,1015.33 1413.5,1015C 1402.81,1010.26 1392.31,1005.1 1382,999.5C 1372.55,992.644 1363.05,985.977 1353.5,979.5C 1343.8,970.8 1333.8,962.467 1323.5,954.5C 1322.17,952.5 1320.83,950.5 1319.5,948.5C 1315.46,944.623 1311.13,940.956 1306.5,937.5C 1302.22,929.891 1296.56,923.558 1289.5,918.5C 1285.7,913.877 1282.54,908.877 1280,903.5C 1278.5,902.333 1277,901.167 1275.5,900C 1275.83,899.667 1276.17,899.333 1276.5,899C 1270.23,892.239 1264.56,885.072 1259.5,877.5C 1258.27,876.349 1258.27,875.183 1259.5,874C 1256.83,871.66 1254.5,868.993 1252.5,866C 1250.22,860.614 1247.56,855.447 1244.5,850.5C 1243.5,849.5 1242.5,848.5 1241.5,847.5C 1241.71,846.914 1242.04,846.414 1242.5,846C 1241.13,844.66 1239.8,843.326 1238.5,842C 1238.64,841.228 1238.98,840.561 1239.5,840C 1238.35,839.355 1237.35,838.522 1236.5,837.5C 1227.89,818.69 1219.89,800.357 1212.5,782.5C 1197.02,739.312 1186.68,694.145 1181.5,647C 1181.55,644.111 1181.88,641.278 1182.5,638.5C 1180.89,623.468 1179.56,608.301 1178.5,593C 1179.54,578.364 1180.88,563.864 1182.5,549.5C 1181.88,546.722 1181.55,543.889 1181.5,541C 1184.55,512.837 1189.39,485.003 1196,457.5C 1196.8,455.117 1197.97,452.95 1199.5,451C 1198.92,450.107 1198.59,449.107 1198.5,448C 1199.47,444.741 1200.8,441.741 1202.5,439C 1201.94,438.275 1201.61,437.442 1201.5,436.5C 1205.31,424.744 1209.31,413.077 1213.5,401.5C 1214.86,397.284 1216.86,393.45 1219.5,390C 1218.98,389.439 1218.64,388.772 1218.5,388C 1219.6,385.784 1220.93,383.784 1222.5,382C 1222.04,381.586 1221.71,381.086 1221.5,380.5C 1225.21,375.369 1227.87,369.702 1229.5,363.5C 1236.76,349.315 1244.26,335.315 1252,321.5C 1253.89,320.07 1255.55,318.403 1257,316.5C 1259.3,311.708 1261.8,307.041 1264.5,302.5C 1269.11,297.736 1273.11,292.57 1276.5,287C 1276.17,286.667 1275.83,286.333 1275.5,286C 1282.59,279.638 1288.25,272.638 1292.5,265C 1295.73,262.009 1299.07,259.176 1302.5,256.5C 1304.83,253.167 1307.17,249.833 1309.5,246.5C 1317.5,240.168 1324.84,233.168 1331.5,225.5C 1339.74,219.892 1347.41,213.559 1354.5,206.5C 1383.27,185.82 1414.27,169.32 1447.5,157C 1526.14,132.32 1602.8,136.82 1677.5,170.5C 1689.27,177.193 1700.6,183.36 1711.5,189C 1711.17,189.333 1710.83,189.667 1710.5,190C 1715.99,192.045 1720.65,195.212 1724.5,199.5C 1750.59,216.103 1773.25,236.437 1792.5,260.5C 1794.05,261.684 1795.71,262.684 1797.5,263.5C 1817.09,289.089 1835.09,315.755 1851.5,343.5C 1854.4,350.971 1858.07,357.971 1862.5,364.5C 1862.17,365.167 1861.83,365.833 1861.5,366.5C 1862.83,367.833 1864.17,369.167 1865.5,370.5C 1865.17,371.167 1864.83,371.833 1864.5,372.5C 1865.96,374.576 1867.29,376.743 1868.5,379C 1872.49,390.778 1877.15,402.278 1882.5,413.5C 1882.39,414.442 1882.06,415.275 1881.5,416C 1884.58,418.84 1885.58,422.174 1884.5,426C 1885.86,427.204 1886.86,428.704 1887.5,430.5C 1895.12,455.978 1901.12,481.645 1905.5,507.5C 1907.99,523.565 1909.65,539.565 1910.5,555.5 Z"/></g>
</svg>
