<?xml version="1.0" encoding="utf-8"?>
<svg xmlns="http://www.w3.org/2000/svg" viewBox="0 0 512 512" xmlns:bx="https://boxy-svg.com" width="512px" height="512px"><defs><bx:export><bx:file format="svg" href="#object-0"/><bx:file format="svg" path="Untitled 2.svg"/></bx:export></defs><path d="M 284.49 512 C 363.846 512 436.323 476.075 484.34 417.208 C 491.443 408.5 483.698 395.778 472.72 397.858 C 347.897 421.512 233.268 326.282 233.268 200.904 C 233.268 128.682 272.123 62.269 335.273 26.51 C 345.008 20.998 342.559 6.313 331.498 4.28 C 315.992 1.435 300.258 0.002 284.49 0 C 142.475 0 27.211 114.511 27.211 256 C 27.211 397.309 142.294 512 284.49 512 Z" style=""/><ellipse style="fill: rgb(216, 216, 216); stroke: rgb(0, 0, 0);" cx="231.429" cy="387.714" rx="56.572" ry="53.429"/><path d="M 484.571 165.429 C 484.571 205.352 453.103 237.715 414.286 237.715 C 375.468 237.715 344 205.352 344 165.429 C 344 125.506 375.468 93.143 414.286 93.143 C 453.103 93.143 484.571 125.506 484.571 165.429 Z" style="stroke: rgb(0, 0, 0);" id="object-0"/></svg>